<svg width="2697" height="33" viewBox="0 0 2697 33" fill="none" xmlns="http://www.w3.org/2000/svg">
<path d="M1314 0H1337.98C1347.18 3.81687 1359.11 6.12109 1372.14 6.12109C1385.02 6.12106 1396.82 3.87142 1405.97 0.134766C1415.5 6.70739 1431.23 11 1449.02 11C1466.93 11 1482.74 6.64727 1492.25 0H1513.01C1522.21 3.81687 1534.13 6.12109 1547.17 6.12109C1560.05 6.12106 1571.85 3.87142 1581 0.134766C1590.53 6.70739 1606.26 11 1624.04 11C1641.95 11 1657.77 6.64727 1667.28 0H1686.93C1696.13 3.81687 1708.05 6.12109 1721.09 6.12109C1733.97 6.12106 1745.77 3.87142 1754.92 0.134766C1764.45 6.70739 1780.18 11 1797.96 11C1815.87 11 1831.69 6.64727 1841.2 0H1861.96C1871.15 3.81687 1883.08 6.12109 1896.12 6.12109C1909 6.12106 1920.8 3.87142 1929.94 0.134766C1939.47 6.70739 1955.2 11 1972.99 11C1990.9 11 2006.72 6.64727 2016.23 0H2035.88C2045.07 3.81687 2057 6.12109 2070.04 6.12109C2082.92 6.12106 2094.72 3.87142 2103.86 0.134766C2113.39 6.70739 2129.12 11 2146.91 11C2164.82 11 2180.64 6.64727 2190.15 0H2210.91C2220.1 3.81686 2232.03 6.12109 2245.06 6.12109C2257.94 6.12105 2269.74 3.87141 2278.89 0.134766C2288.42 6.70737 2304.15 11 2321.94 11C2339.85 11 2355.67 6.64728 2365.18 0H2384.83C2394.02 3.81669 2405.95 6.12109 2418.98 6.12109C2431.86 6.12108 2443.66 3.87142 2452.81 0.134766C2462.34 6.70742 2478.07 11 2495.86 11C2513.77 11 2529.59 6.64725 2539.1 0H2559.86C2569.05 3.81676 2580.98 6.12105 2594.01 6.12109C2606.89 6.12109 2618.69 3.87133 2627.84 0.134766C2637.37 6.70754 2653.1 11 2670.89 11C2680.39 11 2689.3 9.77449 2697 7.63184V33H1314V0Z" fill="#FBF8F2"/>
<path d="M0 0H23.9844C33.1782 3.81687 45.1058 6.12109 58.1396 6.12109C71.0196 6.12106 82.8197 3.87142 91.9688 0.134766C101.498 6.70739 117.227 11 135.017 11C152.926 11 168.745 6.64727 178.255 0H199.013C208.207 3.81687 220.134 6.12109 233.168 6.12109C246.048 6.12106 257.848 3.87142 266.997 0.134766C276.526 6.70739 292.255 11 310.045 11C327.954 11 343.773 6.64727 353.283 0H372.933C382.126 3.81687 394.054 6.12109 407.088 6.12109C419.968 6.12106 431.768 3.87142 440.917 0.134766C450.446 6.70739 466.175 11 483.965 11C501.874 11 517.693 6.64727 527.203 0H547.96C557.154 3.81687 569.081 6.12109 582.115 6.12109C594.995 6.12106 606.795 3.87142 615.944 0.134766C625.473 6.70739 641.203 11 658.992 11C676.901 11 692.72 6.64727 702.23 0H721.88C731.074 3.81687 743.001 6.12109 756.035 6.12109C768.915 6.12106 780.715 3.87142 789.864 0.134766C799.393 6.70739 815.123 11 832.912 11C850.821 11 866.64 6.64727 876.15 0H896.908C906.102 3.81686 918.03 6.12109 931.063 6.12109C943.943 6.12105 955.744 3.87141 964.893 0.134766C974.422 6.70737 990.151 11 1007.94 11C1025.85 11 1041.67 6.64728 1051.18 0H1070.83C1080.02 3.81669 1091.95 6.12109 1104.98 6.12109C1117.86 6.12108 1129.66 3.87142 1138.81 0.134766C1148.34 6.70742 1164.07 11 1181.86 11C1199.77 11 1215.59 6.64725 1225.1 0H1245.86C1255.05 3.81676 1266.98 6.12105 1280.01 6.12109C1292.89 6.12109 1304.69 3.87133 1313.84 0.134766C1323.37 6.70754 1339.1 11 1356.89 11C1366.39 11 1375.3 9.77449 1383 7.63184V33H0V0Z" fill="#FBF8F2"/>
</svg>
